<svg width="342" height="368" viewBox="0 0 342 368" fill="none" xmlns="http://www.w3.org/2000/svg">
<path d="M152.509 366.59C146.205 368.744 139.001 364.475 136.495 357.071L97.4961 242.81L120.284 235.015L159.322 349.433C161.828 356.758 158.774 364.436 152.509 366.59Z" fill="black"/>
<path d="M149.102 368C147.262 368 145.383 367.569 143.581 366.668C139.94 364.866 137.042 361.498 135.633 357.345L96.6343 243.084C96.4776 242.653 96.7126 242.144 97.1824 241.987L119.971 234.192C120.206 234.113 120.441 234.113 120.636 234.231C120.832 234.348 120.989 234.505 121.067 234.74L160.105 349.159C162.728 356.914 159.439 365.101 152.744 367.412C151.608 367.804 150.355 368 149.102 368ZM98.592 243.358L137.317 356.797C138.57 360.518 141.154 363.574 144.364 365.14C146.949 366.394 149.729 366.629 152.235 365.767C158.03 363.769 160.849 356.562 158.5 349.707L119.736 236.111L98.592 243.358Z" fill="black"/>
<path d="M116.251 136.382L42.5214 188.988L13.8206 218.798L2.5439 238.736L2.50474 238.892C0.272892 242.339 1.56501 250.291 5.75463 258.399C9.86593 266.39 15.6609 271.953 19.733 272.266L19.6156 272.344L41.2684 274.695L81.7941 268.231L167.818 237.443L274.751 255.775L275.495 255.814C248.635 250.8 212.377 214.88 186.025 164.076C159.713 113.31 151.334 63.132 162.885 38.376H162.845L116.838 135.128L116.251 136.382Z" fill="#B9FF66"/>
<path d="M293.266 253.603C319.694 239.873 314.583 177.629 281.852 114.577C249.121 51.5247 201.163 11.5412 174.736 25.2711C148.308 39.001 153.419 101.245 186.15 164.297C218.881 227.349 266.839 267.333 293.266 253.603Z" fill="white"/>
<path d="M281.643 257.185C270.131 257.185 256.27 250.761 241.352 238.266C221.031 221.266 201.101 195.06 185.243 164.428C161.241 118.05 151.334 70.4964 160.027 43.2726C162.924 34.1849 167.78 27.8392 174.397 24.4313C187.553 17.6939 206.073 23.4129 226.591 40.5698C246.912 57.57 266.842 83.7754 282.7 114.407C306.742 160.786 316.648 208.339 307.916 235.563C305.019 244.651 300.163 250.996 293.546 254.404C289.983 256.284 285.989 257.185 281.643 257.185ZM186.378 23.4129C182.345 23.4129 178.586 24.2355 175.219 25.9982C168.993 29.171 164.451 35.2033 161.711 43.8601C153.136 70.6923 163.003 117.737 186.809 163.723C219.23 226.279 266.764 266.312 292.802 252.955C299.028 249.782 303.57 243.75 306.311 235.093C314.886 208.261 305.019 161.216 281.212 115.23C252.981 60.782 213.356 23.4129 186.378 23.4129Z" fill="black"/>
<path d="M281.643 257.185C270.131 257.185 256.27 250.761 241.352 238.266C221.031 221.265 201.101 195.06 185.243 164.428C161.241 118.05 151.334 70.4963 160.027 43.2725C162.924 34.1848 167.78 27.8391 174.397 24.4312C183.207 19.8874 194.718 21.0234 207.679 27.6824C220.091 34.0673 233.521 45.3877 246.599 60.3902C246.912 60.7427 246.873 61.2911 246.521 61.6045C246.168 61.9179 245.62 61.8787 245.307 61.5262C218.76 31.0511 191.899 17.4196 175.219 25.9981C168.993 29.1709 164.451 35.2033 161.711 43.86C153.136 70.6922 163.003 117.737 186.809 163.723C215.001 218.132 254.665 255.54 281.604 255.54C285.637 255.54 289.396 254.717 292.763 252.955C298.989 249.782 303.531 243.75 306.272 235.093C314.847 208.261 304.98 161.216 281.173 115.23C274.086 101.52 266.098 88.6325 257.523 76.9204C257.249 76.5286 257.328 75.9803 257.719 75.7061C258.111 75.4319 258.659 75.5102 258.933 75.9019C267.586 87.6924 275.574 100.658 282.739 114.446C306.742 160.785 316.648 208.339 307.916 235.563C305.019 244.65 300.163 250.996 293.546 254.404C289.983 256.284 285.989 257.185 281.643 257.185Z" fill="black"/>
<path d="M233.303 173.339C239.426 170.158 238.248 155.751 230.673 141.159C223.098 126.567 211.995 117.316 205.872 120.497C199.75 123.678 200.928 138.085 208.503 152.677C216.077 167.269 227.181 176.52 233.303 173.339Z" fill="#B9FF66"/>
<path d="M230.624 174.848C223.889 174.848 214.492 166.152 207.718 153.03C202.08 142.14 199.77 130.937 201.845 124.474C202.589 122.202 203.803 120.596 205.486 119.734C212.143 116.326 223.537 125.61 231.446 140.847C237.085 151.737 239.395 162.94 237.32 169.403C236.576 171.675 235.362 173.281 233.678 174.143C232.738 174.613 231.72 174.848 230.624 174.848ZM208.54 120.714C207.718 120.714 206.935 120.87 206.269 121.223C204.977 121.889 204.038 123.142 203.45 124.983C201.532 131.016 203.764 141.748 209.206 152.246C216.411 166.152 227.257 175.514 232.856 172.615C234.148 171.949 235.088 170.696 235.675 168.855C237.594 162.783 235.323 152.09 229.919 141.592C223.576 129.41 214.492 120.714 208.54 120.714Z" fill="#B9FF66"/>
<path d="M275.692 242.574C265.59 242.574 253.452 236.934 240.374 226.005C222.597 211.12 205.134 188.166 191.273 161.373C170.247 120.792 161.593 79.153 169.19 55.2978C171.735 47.307 176.003 41.7447 181.837 38.7285C195.228 31.8736 214.923 39.7861 235.91 60.4292C236.262 60.7818 236.262 61.291 235.91 61.6435C235.558 61.9961 235.049 61.9961 234.696 61.6435C214.257 41.5488 195.267 33.7146 182.62 40.2562C177.216 43.0373 173.262 48.2471 170.834 55.8071C163.355 79.2313 171.97 120.361 192.8 160.589C217.429 208.182 252.081 240.851 275.653 240.851C279.177 240.851 282.426 240.107 285.402 238.618C290.806 235.837 294.76 230.627 297.188 223.067C304.667 199.643 296.052 158.513 275.222 118.285C268.918 106.142 261.87 94.743 254.274 84.4411C254 84.0493 254.078 83.5009 254.47 83.2267C254.861 82.9526 255.409 83.0309 255.683 83.4226C263.358 93.8421 270.445 105.28 276.788 117.501C297.814 158.082 306.468 199.721 298.872 223.576C296.327 231.567 292.059 237.13 286.224 240.146C283.014 241.752 279.49 242.574 275.692 242.574Z" fill="black"/>
<path d="M41.3084 275.517C41.2692 275.517 41.2301 275.517 41.2301 275.517L19.5772 273.167C19.4597 273.167 19.3423 273.128 19.2248 273.05C14.7611 272.344 9.12276 266.704 5.01146 258.791C0.626074 250.448 -0.666049 242.3 1.72242 238.462L1.76158 238.344L13.0383 218.367C13.0774 218.289 13.1166 218.249 13.1558 218.21L41.8565 188.401C41.8957 188.362 41.9349 188.323 41.974 188.284L115.508 135.794L162.024 37.9845C162.141 37.7886 162.298 37.632 162.533 37.5536C162.768 37.4753 163.003 37.4753 163.199 37.5928C163.629 37.7886 163.825 38.2979 163.629 38.7288C151.844 63.994 161.163 114.211 186.77 163.645C212.417 213.157 248.165 249.821 275.692 254.874C276.122 254.953 276.436 255.344 276.396 255.814C276.357 256.245 275.966 256.559 275.535 256.598L274.791 256.559C274.752 256.559 274.713 256.559 274.674 256.559L167.936 238.266L82.1081 268.976C82.069 268.976 81.9907 269.015 81.9515 269.015L41.4258 275.478C41.3867 275.517 41.3475 275.517 41.3084 275.517ZM20.2037 271.522L41.3084 273.794L81.6383 267.331L167.623 236.581C167.78 236.542 167.897 236.503 168.054 236.542L264.141 252.994C238.181 241.595 207.836 207.947 185.321 164.468C162.964 121.301 152.979 77.4689 158.461 49.775L117.035 136.735C116.956 136.852 116.878 136.97 116.761 137.048L43.1095 189.655L14.5262 219.307L3.24948 239.284C3.24948 239.323 3.21032 239.363 3.21032 239.363C1.17425 242.535 2.54468 250.37 6.49936 258.008C10.3757 265.49 15.9749 271.13 19.8121 271.404C19.9688 271.404 20.0862 271.444 20.2037 271.522Z" fill="black"/>
<path d="M116.367 136.069L162.845 38.3369H162.884C151.333 63.093 159.751 113.271 186.025 164.037C212.376 214.881 248.634 250.8 275.573 255.736L274.829 255.697L168.052 237.404L165.586 236.973C153.173 234.779 136.611 218.641 124.747 195.608C112.569 171.988 110.416 148.447 115.819 137.244L116.367 136.069Z" fill="white"/>
<path d="M275.573 256.598C275.573 256.598 275.534 256.598 275.573 256.598L274.79 256.558C274.751 256.558 274.711 256.558 274.672 256.558L167.896 238.266L165.429 237.835C152.312 235.524 135.671 218.719 123.964 196.039C110.69 170.265 110.025 147.311 115.036 136.891L115.624 135.716L162.101 38.0236C162.218 37.8277 162.375 37.671 162.61 37.5927C162.845 37.5143 163.08 37.5143 163.276 37.6319C163.706 37.8277 163.902 38.3369 163.706 38.7678C151.921 64.0331 161.24 114.25 186.847 163.684C212.494 213.196 248.243 249.86 275.769 254.913C276.199 254.992 276.513 255.383 276.473 255.853C276.356 256.245 276.004 256.598 275.573 256.598ZM158.381 49.7749L117.151 136.46L116.563 137.635C111.591 147.977 113.04 171.087 125.491 195.217C136.963 217.466 153.134 233.918 165.742 236.111L168.209 236.542L264.1 252.994C238.14 241.595 207.795 207.947 185.281 164.467C162.923 121.301 152.939 77.4687 158.381 49.7749Z" fill="black"/>
<path d="M40.1332 275.4C40.0941 275.4 40.0549 275.4 40.0549 275.4L19.5376 273.206C19.4201 273.206 19.3026 273.167 19.1852 273.089C14.7215 272.384 9.08311 266.743 4.97181 258.831C0.625575 250.448 -0.666547 242.3 1.72192 238.462L1.76108 238.344L13.0378 218.367C13.2727 217.936 13.7817 217.819 14.2124 218.054C14.6432 218.289 14.7606 218.798 14.5257 219.229L3.24898 239.284C3.24898 239.323 3.20982 239.363 3.20982 239.363C1.17375 242.535 2.54418 250.37 6.49886 258.008C10.3752 265.49 15.9744 271.13 19.8116 271.404C19.9291 271.404 20.0857 271.444 20.164 271.522L40.2115 273.676C40.6814 273.716 41.0338 274.146 40.9555 274.616C40.9163 275.047 40.5639 275.4 40.1332 275.4Z" fill="black"/>
<path d="M41.5034 274.538C34.847 274.068 25.528 264.628 18.7542 251.584C11.5888 237.756 9.90508 223.459 14.2905 218.367L2.58305 238.736L2.50474 238.892C0.272892 242.339 1.56502 250.291 5.75463 258.399C9.86593 266.39 15.6609 271.953 19.733 272.266L19.6156 272.344L41.5034 274.538Z" fill="white"/>
<path d="M41.5036 275.4C41.4645 275.4 41.4645 275.4 41.4253 275.4C41.2687 275.4 41.0729 275.36 40.9163 275.36L19.5376 273.206C19.4201 273.206 19.3026 273.167 19.1852 273.088C14.7215 272.383 9.08311 266.743 4.97181 258.83C0.625575 250.448 -0.666547 242.3 1.72192 238.461L1.76108 238.344L12.0589 220.404C12.4505 219.385 12.9595 218.484 13.586 217.74C13.86 217.387 14.3691 217.348 14.7215 217.583C15.0739 217.857 15.1913 218.327 14.9564 218.719L13.5076 221.187C11.1975 227.415 13.4685 239.636 19.4201 251.074C25.8807 263.57 34.6906 272.697 40.9946 273.519L41.4645 273.559C41.9344 273.598 42.2867 274.029 42.2476 274.499C42.2867 275.047 41.9343 275.4 41.5036 275.4ZM20.164 271.522L35.1213 273.049C29.3655 269.367 23.0224 261.768 17.9713 251.975C13.0769 242.535 10.6493 232.742 11.0409 225.692L3.24898 239.284C3.24898 239.323 3.20982 239.362 3.20982 239.362C1.17375 242.535 2.54418 250.369 6.49886 258.008C10.3752 265.489 15.9744 271.13 19.8116 271.404C19.9291 271.404 20.0857 271.443 20.164 271.522Z" fill="black"/>
<path d="M80.345 268.388L82.0678 268.035C72.7489 269.994 58.0265 255.892 47.6504 235.876C37.0393 215.429 35.0424 195.021 42.5602 188.988L41.5813 189.968L14.3684 218.249C9.9047 223.263 11.5492 237.639 18.7538 251.544C25.6843 264.941 35.5122 274.499 42.2078 274.459L80.345 268.388Z" fill="black"/>
<path d="M42.1694 275.36C35.0432 275.36 25.1369 265.764 17.9715 251.975C10.6886 237.874 8.84831 223.146 13.7036 217.701L40.4074 189.968C40.8773 189.341 41.4255 188.793 42.0128 188.323C42.3652 188.048 42.8742 188.088 43.1875 188.401C43.5007 188.753 43.5007 189.263 43.1875 189.576L41.6604 191.182C36.2178 198.468 38.9195 217.113 48.4343 235.484C58.6929 255.305 73.0237 268.897 81.7945 267.252L81.912 267.213C82.3818 267.135 82.8125 267.409 82.93 267.879C83.0083 268.349 82.7342 268.78 82.2644 268.897C82.2252 268.897 82.1861 268.897 82.1469 268.936L80.5415 269.25H80.5024L42.3652 275.321C42.2869 275.321 42.2086 275.36 42.1694 275.36ZM38.1364 194.825L14.9957 218.876C10.6886 223.733 12.6464 237.913 19.5377 251.192C26.2724 264.197 35.7871 273.598 42.1694 273.637L75.8429 268.27C66.7589 265.058 55.5605 252.955 46.9072 236.307C38.6846 220.443 35.513 204.304 38.1364 194.825Z" fill="black"/>
<path d="M205.878 120.479C199.731 123.612 200.631 138.145 208.462 152.638C221.579 176.885 232.034 174.025 233.248 173.594C233.287 173.594 233.287 173.634 233.248 173.634L210.733 191.77C204.116 182.486 197.812 172.145 192.017 160.981C186.496 150.288 181.837 139.633 178.156 129.292L205.878 120.479Z" fill="black"/>
<path d="M210.733 192.631C210.694 192.631 210.655 192.631 210.616 192.631C210.381 192.592 210.185 192.475 210.028 192.279C203.255 182.76 196.951 172.341 191.273 161.412C185.83 150.914 181.132 140.221 177.373 129.645C177.295 129.41 177.295 129.174 177.412 128.979C177.53 128.783 177.686 128.626 177.921 128.548L205.643 119.734C206.074 119.617 206.544 119.813 206.7 120.243C206.857 120.674 206.7 121.144 206.309 121.34C204.977 122.006 203.998 123.338 203.411 125.297C201.493 131.446 203.842 142.336 209.284 152.325C222.088 175.984 231.955 173.281 233.013 172.889C233.404 172.733 233.874 172.928 234.07 173.281C234.266 173.634 234.187 174.143 233.874 174.417L211.281 192.436C211.125 192.553 210.929 192.631 210.733 192.631ZM179.292 129.84C183.011 140.064 187.553 150.405 192.8 160.59C198.282 171.166 204.39 181.233 210.929 190.516L230.467 174.77C226.004 174.574 217.585 171.244 207.718 153.03C202.002 142.493 199.652 131.368 201.727 124.67C202.002 123.808 202.315 123.064 202.706 122.359L179.292 129.84Z" fill="black"/>
</svg>
