<svg width="30" height="30" viewBox="0 0 30 30" fill="none" xmlns="http://www.w3.org/2000/svg">
<circle cx="15" cy="15" r="15" fill="white"/>
<path d="M15 6.80184C17.6701 6.80184 17.9864 6.812 19.0408 6.86011C20.0158 6.90461 20.5453 7.06752 20.8977 7.20443C21.3644 7.38583 21.6976 7.60257 22.0475 7.95248C22.3974 8.30239 22.6142 8.63555 22.7955 9.10229C22.9325 9.4547 23.0954 9.98419 23.1399 10.9591C23.188 12.0136 23.1982 12.3299 23.1982 15C23.1982 17.6701 23.188 17.9864 23.1399 19.0409C23.0954 20.0158 22.9325 20.5453 22.7955 20.8978C22.6142 21.3645 22.3974 21.6976 22.0475 22.0476C21.6976 22.3975 21.3644 22.6142 20.8977 22.7956C20.5453 22.9325 20.0158 23.0954 19.0408 23.1399C17.9865 23.188 17.6703 23.1982 15 23.1982C12.3297 23.1982 12.0134 23.188 10.9591 23.1399C9.98415 23.0954 9.45466 22.9325 9.10229 22.7956C8.63551 22.6142 8.30235 22.3975 7.95244 22.0476C7.60253 21.6976 7.38579 21.3645 7.20443 20.8978C7.06748 20.5453 6.90457 20.0158 6.86007 19.0409C6.81196 17.9864 6.8018 17.6701 6.8018 15C6.8018 12.3299 6.81196 12.0136 6.86007 10.9592C6.90457 9.98419 7.06748 9.4547 7.20443 9.10229C7.38579 8.63555 7.60253 8.30239 7.95244 7.95248C8.30235 7.60257 8.63551 7.38583 9.10229 7.20443C9.45466 7.06752 9.98415 6.90461 10.9591 6.86011C12.0136 6.812 12.3299 6.80184 15 6.80184ZM15 5C12.2841 5 11.9436 5.01151 10.877 5.06018C9.81259 5.10876 9.08569 5.27779 8.44958 5.52501C7.79199 5.78056 7.23432 6.1225 6.67839 6.67843C6.12246 7.23436 5.78052 7.79203 5.52497 8.44962C5.27775 9.08573 5.10872 9.81263 5.06014 10.8771C5.01147 11.9436 5 12.2842 5 15C5 17.7159 5.01147 18.0564 5.06014 19.123C5.10872 20.1874 5.27775 20.9143 5.52497 21.5504C5.78052 22.208 6.12246 22.7657 6.67839 23.3216C7.23432 23.8775 7.79199 24.2195 8.44958 24.475C9.08569 24.7223 9.81259 24.8913 10.877 24.9399C11.9436 24.9885 12.2841 25 15 25C17.7158 25 18.0564 24.9885 19.1229 24.9399C20.1874 24.8913 20.9143 24.7223 21.5504 24.475C22.208 24.2195 22.7656 23.8775 23.3216 23.3216C23.8775 22.7657 24.2194 22.208 24.475 21.5504C24.7222 20.9143 24.8912 20.1874 24.9398 19.123C24.9885 18.0564 25 17.7159 25 15C25 12.2842 24.9885 11.9436 24.9398 10.8771C24.8912 9.81263 24.7222 9.08573 24.475 8.44962C24.2194 7.79203 23.8775 7.23436 23.3216 6.67843C22.7656 6.1225 22.208 5.78056 21.5504 5.52501C20.9143 5.27779 20.1874 5.10876 19.1229 5.06018C18.0564 5.01151 17.7158 5 15 5ZM15 9.86487C12.1639 9.86487 9.86483 12.164 9.86483 15C9.86483 17.8361 12.1639 20.1352 15 20.1352C17.836 20.1352 20.1351 17.8361 20.1351 15C20.1351 12.164 17.836 9.86487 15 9.86487ZM15 18.3334C13.159 18.3334 11.6666 16.841 11.6666 15C11.6666 13.1591 13.159 11.6667 15 11.6667C16.8409 11.6667 18.3333 13.1591 18.3333 15C18.3333 16.841 16.8409 18.3334 15 18.3334ZM21.538 9.66199C21.538 10.3247 21.0008 10.862 20.338 10.862C19.6753 10.862 19.138 10.3247 19.138 9.66199C19.138 8.99924 19.6753 8.462 20.338 8.462C21.0008 8.462 21.538 8.99924 21.538 9.66199Z" fill="#0A0A08"/>
</svg>
