<svg width="34" height="30" viewBox="0 0 34 30" fill="none" xmlns="http://www.w3.org/2000/svg">
<path d="M12.1089 22.3526C11.8052 23.8455 11.6081 24.5673 10.4557 24.6598C10.1718 24.6826 9.94052 24.8969 9.89624 25.1783C9.85186 25.4596 10.0061 25.7347 10.2693 25.8437C10.3433 25.8743 12.1058 26.5945 14.165 26.5946C14.1653 26.5946 14.1655 26.5946 14.1658 26.5946C15.6007 26.5946 16.8317 26.2467 17.8243 25.5608C19.0006 24.7479 19.8116 23.4759 20.2428 21.7814L16.2801 17.7871C12.9313 18.3291 12.4569 20.6419 12.1089 22.3526Z" fill="black"/>
<path d="M33.1578 4.81028C33.0513 4.70282 32.8612 4.57471 32.5613 4.57471C32.2097 4.57471 31.2755 4.57471 25.6021 9.40237C22.9815 11.6323 19.96 14.391 17.5566 16.7386L21.317 20.5288C23.7889 17.9596 26.6724 14.7393 28.9656 11.9754C30.4138 10.2304 31.5273 8.79049 32.2753 7.69586C33.2661 6.24598 33.7 5.35672 33.1578 4.81028Z" fill="black"/>
<path d="M18.7587 26.9129C17.4861 27.7923 15.9408 28.238 14.1648 28.238C11.8273 28.2379 9.85833 27.4522 9.63982 27.362C8.67155 26.9607 8.10929 25.9573 8.27243 24.9222C8.43218 23.9081 9.2446 23.1374 10.2594 23.0272C10.3479 22.763 10.4457 22.2819 10.4981 22.0247C10.691 21.0764 10.9551 19.7776 11.7676 18.6215C12.6549 17.3592 13.9924 16.5499 15.7487 16.2108C16.7566 15.2105 17.9066 14.1106 19.1066 12.9944C18.5 12.8628 17.9576 12.4677 17.6666 11.8701C17.1658 10.8407 17.6026 9.60242 18.6409 9.10704C19.6819 8.61042 20.9306 9.04417 21.4307 10.0751C21.5294 10.2783 21.5904 10.4894 21.6189 10.7014C22.6142 9.80994 23.6026 8.94472 24.5357 8.15069C24.5412 8.14596 24.5465 8.14144 24.5521 8.13672C23.5033 6.12971 21.9993 4.35149 20.1667 2.98996C17.5353 1.03484 14.4019 0.00082187 11.1056 0C11.1046 0 11.1039 0 11.1031 0C8.87846 0 6.1743 0.777284 4.04555 2.02889C1.43632 3.56291 -0.000513531 5.6145 1.3768e-07 7.8055C0.000822008 10.4507 1.49272 11.5571 2.69152 12.4461C3.66903 13.1711 4.44108 13.7436 4.44149 14.9984C4.4418 16.2531 3.67016 16.8251 2.69317 17.5494C1.49478 18.4378 0.00318488 19.5437 0.00400675 22.1892C0.00462316 24.3798 1.44238 26.432 4.05233 27.9673C6.18262 29.2205 8.88822 29.9994 11.1132 30C11.1148 30 11.1161 30 11.1175 30C15.1555 30 18.9514 28.4414 21.8064 25.6112C23.947 23.4892 25.3667 20.8427 25.9438 17.9635C24.5104 19.5529 23.0675 21.0962 21.7766 22.4141C21.229 24.3944 20.2152 25.9064 18.7587 26.9129ZM11.409 6.22474C11.6656 5.10792 12.7856 4.41077 13.911 4.66658C15.0348 4.92115 15.7389 6.03109 15.4841 7.14636C15.2274 8.26041 14.1068 8.95766 12.9813 8.70319C11.8566 8.45006 11.1522 7.33878 11.409 6.22474ZM4.62857 10.0309C3.90892 9.1355 4.05685 7.83232 4.95896 7.11955C5.86096 6.40812 7.17503 6.554 7.89601 7.44779C8.61412 8.34188 8.46567 9.64505 7.56429 10.3593C6.66424 11.0722 5.34811 10.9248 4.62857 10.0309ZM5.727 23.6962C4.82438 22.9828 4.67593 21.6796 5.39558 20.7845C6.11471 19.8911 7.42929 19.7446 8.33181 20.4578C9.23361 21.1711 9.38216 22.4743 8.66313 23.3679C7.94409 24.263 6.62941 24.4094 5.727 23.6962Z" fill="black"/>
</svg>
